<svg width="20" height="20" viewBox="0 0 20 20" fill="none" xmlns="http://www.w3.org/2000/svg">
<circle cx="10" cy="10" r="10" fill="#6576DB"/>
<path d="M8.88333 4.878C9.16733 3.70733 10.8327 3.70733 11.1167 4.878C11.1593 5.05387 11.2428 5.21719 11.3605 5.35467C11.4781 5.49215 11.6266 5.5999 11.7938 5.66916C11.9609 5.73843 12.1421 5.76723 12.3225 5.75325C12.5029 5.73926 12.6775 5.68287 12.832 5.58867C13.8607 4.962 15.0387 6.13933 14.412 7.16867C14.3179 7.3231 14.2616 7.49756 14.2477 7.67785C14.2337 7.85814 14.2625 8.03918 14.3317 8.20625C14.4009 8.37333 14.5085 8.52172 14.6458 8.63937C14.7831 8.75702 14.9463 8.8406 15.122 8.88333C16.2927 9.16733 16.2927 10.8327 15.122 11.1167C14.9461 11.1593 14.7828 11.2428 14.6453 11.3605C14.5079 11.4781 14.4001 11.6266 14.3308 11.7938C14.2616 11.9609 14.2328 12.1421 14.2468 12.3225C14.2607 12.5029 14.3171 12.6775 14.4113 12.832C15.038 13.8607 13.8607 15.0387 12.8313 14.412C12.6769 14.3179 12.5024 14.2616 12.3222 14.2477C12.1419 14.2337 11.9608 14.2625 11.7937 14.3317C11.6267 14.4009 11.4783 14.5085 11.3606 14.6458C11.243 14.7831 11.1594 14.9463 11.1167 15.122C10.8327 16.2927 9.16733 16.2927 8.88333 15.122C8.84072 14.9461 8.75719 14.7828 8.63953 14.6453C8.52187 14.5079 8.37341 14.4001 8.20623 14.3308C8.03906 14.2616 7.85789 14.2328 7.67748 14.2468C7.49706 14.2607 7.3225 14.3171 7.168 14.4113C6.13933 15.038 4.96133 13.8607 5.588 12.8313C5.68207 12.6769 5.73837 12.5024 5.75232 12.3222C5.76628 12.1419 5.7375 11.9608 5.66831 11.7937C5.59913 11.6267 5.49151 11.4783 5.35418 11.3606C5.21686 11.243 5.05371 11.1594 4.878 11.1167C3.70733 10.8327 3.70733 9.16733 4.878 8.88333C5.05387 8.84072 5.21719 8.75719 5.35467 8.63953C5.49215 8.52187 5.5999 8.37341 5.66916 8.20623C5.73843 8.03906 5.76723 7.85789 5.75325 7.67748C5.73926 7.49706 5.68287 7.3225 5.58867 7.168C4.962 6.13933 6.13933 4.96133 7.16867 5.588C7.83533 5.99333 8.69933 5.63467 8.88333 4.878Z" stroke="white" stroke-width="1.25" stroke-linecap="round" stroke-linejoin="round"/>
<path d="M8 10C8 10.5304 8.21071 11.0391 8.58579 11.4142C8.96086 11.7893 9.46957 12 10 12C10.5304 12 11.0391 11.7893 11.4142 11.4142C11.7893 11.0391 12 10.5304 12 10C12 9.46957 11.7893 8.96086 11.4142 8.58579C11.0391 8.21071 10.5304 8 10 8C9.46957 8 8.96086 8.21071 8.58579 8.58579C8.21071 8.96086 8 9.46957 8 10Z" stroke="white" stroke-width="1.25" stroke-linecap="round" stroke-linejoin="round"/>
</svg>
