<svg width="24" height="24" viewBox="0 0 24 24" fill="none" xmlns="http://www.w3.org/2000/svg">
    <g clip-path="url(#clip0_2365_24550)">
        <path d="M3 12H4M12 3V4M20 12H21M5.6 5.6L6.3 6.3M18.4 5.6L17.7 6.3" stroke="#6B6C6F" stroke-width="2" stroke-linecap="round" stroke-linejoin="round"/>
        <path d="M9.00049 15.999C8.16096 15.3694 7.54082 14.4915 7.22792 13.4899C6.91502 12.4882 6.92522 11.4134 7.25707 10.4179C7.58893 9.42233 8.22561 8.55641 9.07694 7.94281C9.92826 7.32921 10.9511 6.99902 12.0005 6.99902C13.0499 6.99902 14.0727 7.32921 14.924 7.94281C15.7754 8.55641 16.4121 9.42233 16.7439 10.4179C17.0758 11.4134 17.086 12.4882 16.7731 13.4899C16.4602 14.4915 15.84 15.3694 15.0005 15.999C14.6101 16.3855 14.3161 16.8585 14.1424 17.3796C13.9686 17.9008 13.92 18.4556 14.0005 18.999C14.0005 19.5295 13.7898 20.0382 13.4147 20.4132C13.0396 20.7883 12.5309 20.999 12.0005 20.999C11.4701 20.999 10.9613 20.7883 10.5863 20.4132C10.2112 20.0382 10.0005 19.5295 10.0005 18.999C10.0809 18.4556 10.0323 17.9008 9.85862 17.3796C9.68489 16.8585 9.39092 16.3855 9.00049 15.999Z" stroke="#6B6C6F" stroke-width="2" stroke-linecap="round" stroke-linejoin="round"/>
        <path d="M9.69971 17.001H14.2997" stroke="#6B6C6F" stroke-width="2" stroke-linecap="round" stroke-linejoin="round"/>
    </g>
    <defs>
        <clipPath id="clip0_2365_24550">
            <rect width="24" height="24" fill="white"/>
        </clipPath>
    </defs>
</svg>
