<svg width="16" height="17" viewBox="0 0 16 17" fill="none" xmlns="http://www.w3.org/2000/svg">
<path id="loading-circle" d="M8.00078 16.0016C6.92099 16.0016 5.87245 15.7906 4.88641 15.3734C3.9332 14.9702 3.07843 14.392 2.34398 13.6576C1.60953 12.9231 1.03135 12.0684 0.628186 11.1151C0.210958 10.1291 0 9.08057 0 8.00078C0 7.68981 0.251587 7.43823 0.562555 7.43823C0.873523 7.43823 1.12511 7.68981 1.12511 8.00078C1.12511 8.929 1.30638 9.82908 1.66579 10.6776C2.0127 11.4964 2.50806 12.2324 3.13937 12.8638C3.77068 13.4951 4.50669 13.992 5.32552 14.3373C6.17248 14.6952 7.07257 14.8765 8.00078 14.8765C8.929 14.8765 9.82908 14.6952 10.6776 14.3358C11.4964 13.9889 12.2324 13.4935 12.8638 12.8622C13.4951 12.2309 13.992 11.4949 14.3373 10.676C14.6952 9.82909 14.8765 8.929 14.8765 8.00078C14.8765 7.07257 14.6952 6.17248 14.3358 5.32396C13.9889 4.50513 13.4935 3.77068 12.8622 3.13781C12.2309 2.50649 11.4949 2.00957 10.676 1.66422C9.82909 1.30638 8.929 1.12511 8.00078 1.12511C7.68981 1.12511 7.43823 0.873523 7.43823 0.562555C7.43823 0.251587 7.68981 0 8.00078 0C9.08057 0 10.1291 0.210958 11.1151 0.628186C12.0684 1.03135 12.9231 1.60953 13.6576 2.34398C14.392 3.07843 14.9686 3.93476 15.3718 4.88641C15.789 5.87245 16 6.92099 16 8.00078C16 9.08057 15.789 10.1291 15.3718 11.1151C14.9702 12.0684 14.392 12.9231 13.6576 13.6576C12.9231 14.392 12.0668 14.9686 11.1151 15.3718C10.1291 15.7906 9.08057 16.0016 8.00078 16.0016Z" fill="#9EA0A5"/>
</svg>
