<svg width="16" height="16" viewBox="0 0 16 16" fill="none" xmlns="http://www.w3.org/2000/svg">
    <path fill-rule="evenodd" clip-rule="evenodd" d="M8.80256 4.00536V9.60536C8.80256 10.047 8.44416 10.4054 8.00256 10.4054C7.56096 10.4054 7.20256 10.047 7.20256 9.60536V4.00536C7.20256 3.56376 7.56096 3.20536 8.00256 3.20536C8.44416 3.20536 8.80256 3.56376 8.80256 4.00536ZM8.80256 12.0054C8.80256 12.447 8.44416 12.8054 8.00256 12.8054C7.56096 12.8054 7.20256 12.447 7.20256 12.0054C7.20256 11.5638 7.56096 11.2054 8.00256 11.2054C8.44416 11.2054 8.80256 11.5638 8.80256 12.0054ZM14.4026 13.5998C14.4026 14.0414 14.0442 14.3998 13.6026 14.3998H2.40256C1.96096 14.3998 1.60256 14.0414 1.60256 13.5998V2.39976C1.60256 1.95816 1.96096 1.59976 2.40256 1.59976H13.6026C14.0442 1.59976 14.4026 1.95816 14.4026 2.39976V13.5998ZM14.4026 -0.000244141H1.60256C0.718563 -0.000244141 0.00256348 0.718956 0.00256348 1.60216V1.60536V14.4054C0.00256348 15.2894 0.718563 15.9998 1.60256 15.9998H14.4026C15.2866 15.9998 16.0026 15.2862 16.0026 14.4022V1.60536C16.0026 0.721356 15.2026 -0.000244141 14.4026 -0.000244141Z" fill="currentColor"/>
</svg>
