<svg width="20" height="20" viewBox="0 0 20 20" fill="none" xmlns="http://www.w3.org/2000/svg">
<path d="M8.14811 16.4814H2.59255C2.34698 16.4814 2.11147 16.3839 1.93782 16.2102C1.76418 16.0366 1.66663 15.8011 1.66663 15.5555V2.59255C1.66663 2.34698 1.76418 2.11147 1.93782 1.93782C2.11147 1.76418 2.34698 1.66663 2.59255 1.66663H8.14811C8.63925 1.66663 9.11027 1.86173 9.45756 2.20902C9.80485 2.55631 9.99996 3.02734 9.99996 3.51848C9.99996 3.02734 10.1951 2.55631 10.5424 2.20902C10.8896 1.86173 11.3607 1.66663 11.8518 1.66663H17.4074C17.6529 1.66663 17.8885 1.76418 18.0621 1.93782C18.2357 2.11147 18.3333 2.34698 18.3333 2.59255V15.5555C18.3333 15.8011 18.2357 16.0366 18.0621 16.2102C17.8885 16.3839 17.6529 16.4814 17.4074 16.4814H11.8518C11.3607 16.4814 10.8896 16.6765 10.5424 17.0238C10.1951 17.3711 9.99996 17.8422 9.99996 18.3333C9.99996 17.8422 9.80485 17.3711 9.45756 17.0238C9.11027 16.6765 8.63925 16.4814 8.14811 16.4814Z" stroke="currentColor" stroke-width="2" stroke-linecap="round" stroke-linejoin="round"/>
<path d="M10 3.51855V18.3334" stroke="currentColor" stroke-width="2" stroke-linecap="round" stroke-linejoin="round"/>
<path d="M5.37036 5.37036H6.29629" stroke="currentColor" stroke-width="2" stroke-linecap="round" stroke-linejoin="round"/>
<path d="M5.37036 9.0741H6.29629" stroke="currentColor" stroke-width="2" stroke-linecap="round" stroke-linejoin="round"/>
<path d="M13.7037 5.37036H14.6297" stroke="currentColor" stroke-width="2" stroke-linecap="round" stroke-linejoin="round"/>
<path d="M13.7037 9.0741H14.6297" stroke="currentColor" stroke-width="2" stroke-linecap="round" stroke-linejoin="round"/>
<path d="M13.7037 12.7778H14.6297" stroke="currentColor" stroke-width="2" stroke-linecap="round" stroke-linejoin="round"/>
</svg>
