<svg width="20" height="20" viewBox="0 0 20 20" fill="none" xmlns="http://www.w3.org/2000/svg">
<path fill-rule="evenodd" clip-rule="evenodd" d="M18 8.00049H2V3.00049C2 2.44849 2.337 2.00049 2.889 2.00049H6.244C6.626 2.00049 6.974 2.21749 7.142 2.56049L8.278 4.87949C8.614 5.56549 9.31 6.00049 10.074 6.00049H16.889C17.441 6.00049 18 6.44849 18 7.00049V8.00049ZM18 17.0005C18 17.5525 17.441 18.0005 16.889 18.0005H2.889C2.337 18.0005 2 17.5525 2 17.0005V10.0005H18V17.0005ZM17.889 4.00049H11.125C10.367 4.00049 9.675 3.57249 9.336 2.89449L8.442 1.10649C8.103 0.428488 7.41 0.000488281 6.653 0.000488281H1.889C0.784 0.000488281 0 0.895488 0 2.00049V18.0005C0 19.1055 0.784 20.0005 1.889 20.0005H17.889C18.993 20.0005 20 19.1055 20 18.0005V6.00049C20 4.89549 18.993 4.00049 17.889 4.00049Z" fill="currentColor"/>
</svg>
