<?xml version="1.0" encoding="UTF-8"?>
<svg width="28px" height="28px" viewBox="0 0 28 28" version="1.1" xmlns="http://www.w3.org/2000/svg" xmlns:xlink="http://www.w3.org/1999/xlink">
    <title>default</title>
    <defs>
        <linearGradient x1="-0.04579537%" y1="50.0109619%" x2="100.018073%" y2="50.0109619%" id="linearGradient-1">
            <stop stop-color="#B0BACC" offset="0%"></stop>
            <stop stop-color="#969EAE" offset="100%"></stop>
        </linearGradient>
        <linearGradient x1="50.0301667%" y1="100.608992%" x2="50.0301667%" y2="45.5191355%" id="linearGradient-2">
            <stop stop-color="#FFFFFF" offset="0%"></stop>
            <stop stop-color="#E2E5EC" offset="100%"></stop>
        </linearGradient>
    </defs>
    <g id="ChatDoc移动端-V1.0" stroke="none" stroke-width="1" fill="none" fill-rule="evenodd">
        <g id="4多个问答" transform="translate(-18.000000, -195.000000)" fill-rule="nonzero">
            <g id="编组-6" transform="translate(0.000000, 66.000000)">
                <g id="default" transform="translate(18.000000, 129.000000)">
                    <path d="M28,14 C28,17.4226 26.7802,20.5358 24.7412,22.9753 C22.1742,26.052 18.3147,28 13.9818,28 C9.83095,28 6.11703,26.1977 3.55006,23.3394 C1.3472,20.8635 0,17.5865 0,14 C0,6.26268 6.26268,0 14,0 C21.7373,0 28,6.26268 28,14 Z" id="路径" fill="#C9D8F2"></path>
                    <path d="M24.7595,22.4265 C22.1925,25.5033 18.333,27.4512 14.0001,27.4512 C9.84924,27.4512 6.13533,25.6489 3.56836,22.7906 C4.00529,22.4447 4.55145,22.1352 5.22506,21.8622 L5.73481,21.6619 C6.6997,21.2796 7.95588,20.8062 9.64898,20.0962 C10.0313,19.9324 10.3408,19.6411 10.5046,19.2588 C10.5957,19.0585 10.6503,18.8218 10.6503,18.5852 L10.6503,15.4356 C10.5957,15.3628 10.5411,15.3082 10.5046,15.2354 C10.2316,14.8348 10.0495,14.3615 9.99489,13.8518 L9.72181,13.7243 C8.90256,13.9246 8.95718,13.0507 8.75692,11.3758 C8.66589,10.684 8.77512,10.5384 9.08461,10.4291 L9.33949,10.0832 C7.77382,6.53316 8.55666,4.31209 10.1041,3.52926 C9.59437,2.40052 9.55796,2 9.55796,2 C9.55796,2 12.8531,2.54616 14.0001,2.3277 C15.4383,2.03641 17.6594,2.38231 18.4786,4.29389 C19.844,4.84005 20.3902,5.69571 20.4994,6.64239 C20.6997,8.13524 19.844,9.77373 19.6802,10.4109 C19.6984,10.4473 19.7166,10.4655 19.7166,10.4837 C19.9351,10.593 20.0079,10.775 19.9351,11.3758 C19.7348,12.9597 19.7894,13.9428 18.9702,13.7243 L18.242,14.9987 C18.2055,15.1443 18.2056,15.199 18.1873,15.3082 C18.1509,15.5449 18.1691,16.0182 18.1691,18.6216 C18.1691,18.9311 18.2602,19.2224 18.424,19.4954 C18.6061,19.7685 18.8609,20.0052 19.1886,20.1326 C19.1886,20.1326 19.2069,20.1326 19.2251,20.1508 C21.1002,20.9337 22.4474,21.4434 23.4305,21.8257 C23.9403,21.9896 24.3772,22.2081 24.7595,22.4265 Z" id="路径" fill="#FFFFFF"></path>
                    <path d="M19.7166,10.3927 C19.7894,9.9922 19.6074,9.50065 19.4618,9.15475 C19.4435,9.10013 19.4071,9.04551 19.3889,8.97269 C18.7517,7.69831 17.3499,7.18856 16.0027,7.11573 C12.5619,6.93368 12.2524,7.58908 11.1783,6.60598 C11.506,7.11573 11.5424,7.89857 11.0326,8.88166 C10.6685,9.57347 9.97671,9.88296 9.37592,10.0832 C7.81026,6.53316 8.59309,4.31209 10.1406,3.52926 C9.6308,2.40052 9.59439,2 9.59439,2 C9.59439,2 12.8896,2.54616 14.0183,2.3277 C15.4565,2.03641 17.6776,2.38231 18.4969,4.29389 C19.8623,4.84005 20.3902,5.69571 20.5177,6.64239 C20.7179,8.11703 19.8805,9.73732 19.7166,10.3927 Z" id="路径" fill="url(#linearGradient-1)"></path>
                    <path d="M18.4602,19.4594 L18.4602,20.0784 L10.5044,20.0784 L10.5044,19.2774 C10.5954,19.0771 10.65,18.8404 10.65,18.6038 L10.65,15.436 C10.5954,15.3632 10.5408,15.3086 10.5044,15.2358 L10.5044,15.0537 C10.6682,15.345 10.8867,15.6181 11.1598,15.8365 L13.6539,17.5661 C14.2365,18.0576 15.074,18.0758 15.6747,17.6025 L18.005,15.5088 C18.0779,15.436 18.1689,15.3632 18.2417,15.2904 C18.2053,15.5271 18.2235,16.0004 18.2235,18.6038 C18.2053,18.9133 18.2963,19.2228 18.4602,19.4594 Z" id="路径" fill="url(#linearGradient-2)"></path>
                </g>
            </g>
        </g>
    </g>
</svg>