<svg width="20" height="20" viewBox="0 0 20 20" fill="none" xmlns="http://www.w3.org/2000/svg">
<path fill-rule="evenodd" clip-rule="evenodd" d="M13.9792 0.000488281H0.000244141V10.0005H2.00024V2.00049H12.0002V8.00049H18.0002V10.0005H20.0002V6.43849L13.9792 0.000488281ZM4.00024 15.1055C4.00024 14.5525 3.55224 14.1055 3.00024 14.1055H2.00024V16.1055H3.00024C3.55224 16.1055 4.00024 15.6575 4.00024 15.1055ZM6.00024 15.0005C6.00024 16.6575 4.65724 18.0005 3.00024 18.0005H2.00024V20.0005H0.000244141V12.0005H3.00024C4.65724 12.0005 6.00024 13.3435 6.00024 15.0005ZM11.0002 15.1055C11.0002 14.5525 10.5522 14.0005 10.0002 14.0005H9.00024V18.0005H10.0002C10.5522 18.0005 11.0002 17.6575 11.0002 17.1055V15.1055ZM13.0002 15.0005V17.0005C13.0002 18.6575 11.6572 20.0005 10.0002 20.0005H7.00024V18.1055V14.1055V12.0005H10.0002C11.6502 12.0005 13.0002 13.3505 13.0002 15.0005ZM20.0002 12.0005V14.0005H16.0002V16.0005H20.0002V18.0005H16.0002V20.0005H14.0002V12.0005H20.0002Z" fill="currentColor"/>
</svg>
