<svg width="40" height="40" viewBox="0 0 40 40" fill="none" xmlns="http://www.w3.org/2000/svg">
<path id="question [#1445]" fill-rule="evenodd" clip-rule="evenodd" d="M40 20C40 31.0457 31.0457 40 20 40C8.9543 40 0 31.0457 0 20C0 8.9543 8.9543 0 20 0C31.0457 0 40 8.9543 40 20ZM36 20C36 28.8366 28.8366 36 20 36C11.1634 36 4 28.8366 4 20C4 11.1634 11.1634 4 20 4C28.8366 4 36 11.1634 36 20ZM17.556 33.024C18.66 33.024 19.556 32.128 19.556 31.024C19.556 29.92 18.66 29.024 17.556 29.024C16.452 29.024 15.556 29.92 15.556 31.024C15.556 32.128 16.452 33.024 17.556 33.024ZM13.556 10C12.452 10 11.556 10.896 11.556 12C11.556 13.104 12.452 14 13.556 14H21.556C22.66 14 23.556 14.896 23.556 16C23.556 17.104 22.66 18 21.556 18H19.556C17.592 18 16 19.592 16 21.556V25.024C16 26.128 16.896 27.024 18 27.024C19.106 27.024 20 26.128 20 25.024V23.018C20 22.456 20.456 22 21.018 22H24C26.2 22 28 20.2 28 18V13.024C28 11.354 26.646 10 24.976 10H13.556Z" fill="#9EA0A5"/>
</svg>
