<svg width="175" height="124" viewBox="0 0 175 124" fill="none" xmlns="http://www.w3.org/2000/svg">
    <path d="M86.8307 111.5C116.531 111.5 140.731 87.4 140.731 57.8C140.631 28.1 116.531 4 86.8307 4C57.0307 4 32.9307 28.1 32.9307 57.7C32.9307 87.4 57.0307 111.5 86.8307 111.5Z" fill="#EAEEF9"/>
    <g filter="url(#filter0_d_162_1843)">
        <path d="M144.331 64.6001C144.331 76.1001 135.031 85.4001 123.431 85.4001C123.231 85.4001 121.531 85.4001 109.031 85.4001C100.331 85.4001 86.4309 85.4001 64.2309 85.4001H53.6309C39.7309 85.7001 28.6309 74.6001 28.6309 61.2001C28.6309 47.7001 39.8309 36.5001 53.9309 37.2001C66.0309 -0.599916 121.431 4.70008 126.131 43.8001C136.531 45.1001 144.331 53.9001 144.331 64.6001Z" fill="url(#paint0_linear_162_1843)"/>
    </g>
    <path d="M123.431 85.4001C134.931 85.4001 144.331 76.1 144.331 64.6C144.331 53.1 134.931 43.8 123.431 43.8C111.931 43.8 102.531 53.1 102.531 64.6C102.531 76.1 111.931 85.4001 123.431 85.4001Z" fill="url(#paint1_linear_162_1843)"/>
    <path d="M89.3309 85.5999C109.831 85.5999 126.531 68.9999 126.531 48.4999C126.531 27.9999 109.831 11.3999 89.3309 11.3999C68.8309 11.3999 52.1309 27.9999 52.1309 48.4999C52.1309 68.9999 68.7309 85.5999 89.3309 85.5999Z" fill="url(#paint2_linear_162_1843)"/>
    <path d="M75.5721 58.0187C77.1467 58.0187 78.4791 56.6863 78.4791 55.1116C78.4791 53.537 77.1467 52.2046 75.5721 52.2046C73.9974 52.2046 72.665 53.537 72.665 55.1116C72.665 56.6863 73.9974 58.0187 75.5721 58.0187Z" fill="#989FB0"/>
    <path d="M97.8592 58.0189C99.4338 58.0189 100.766 56.6865 100.766 55.1119C100.766 53.5372 99.4338 52.2048 97.8592 52.2048C96.2845 52.2048 94.9521 53.5372 94.9521 55.1119C94.9521 56.8076 96.2845 58.0189 97.8592 58.0189Z" fill="#989FB0"/>
    <path d="M75.4582 45.4945L69.0635 48.9473L69.9267 50.546L76.3215 47.0931L75.4582 45.4945Z" fill="#989FB0"/>
    <path d="M97.4636 45.4483L96.6006 47.0471L102.996 50.4992L103.859 48.9003L97.4636 45.4483Z" fill="#989FB0"/>
    <path d="M86.7158 64.8019C88.5889 64.8019 90.1073 63.6631 90.1073 62.2583C90.1073 60.8534 88.5889 59.7146 86.7158 59.7146C84.8427 59.7146 83.3242 60.8534 83.3242 62.2583C83.3242 63.6631 84.8427 64.8019 86.7158 64.8019Z" fill="#989FB0"/>
    <path d="M17.085 18.3555C17.085 18.3555 3.10641 21.9046 7.34234 24.7439C11.5783 27.4412 21.6033 32.126 31.0635 29.0028C40.5237 25.8796 31.0635 21.4787 31.2047 21.4787C31.3459 21.4787 17.085 18.3555 17.085 18.3555Z" fill="#CED7E2"/>
    <path d="M0 17.2199C5.08311 18.7815 20.756 16.2262 30.781 9.6958C38.6881 19.4913 41.6532 22.0467 44.4772 22.3306C40.1001 26.7315 25.5567 33.8297 17.3673 24.602C7.76586 30.7065 0 17.2199 0 17.2199Z" fill="#E9EDF9"/>
    <path d="M130.069 52.7162C135.435 53.0001 149.978 46.4697 157.885 37.668C168.051 45.1921 171.44 46.8956 174.405 46.4697C171.158 51.8644 161.274 63.6474 147.295 64.4992C137.129 58.5367 130.069 52.7162 130.069 52.7162Z" fill="#E9EDF9"/>
    <path d="M87.2389 119.307C86.1774 114.04 76.2302 101.582 65.7362 96.1163C70.4908 84.3963 71.2965 80.6901 70.1455 77.9245C76.179 79.7259 90.0526 86.363 94.3596 99.6888C91.1174 111.02 87.2389 119.307 87.2389 119.307Z" fill="white"/>
    <defs>
        <filter id="filter0_d_162_1843" x="6.63086" y="0.490479" width="159.7" height="117.916" filterUnits="userSpaceOnUse" color-interpolation-filters="sRGB">
            <feFlood flood-opacity="0" result="BackgroundImageFix"/>
            <feColorMatrix in="SourceAlpha" type="matrix" values="0 0 0 0 0 0 0 0 0 0 0 0 0 0 0 0 0 0 127 0" result="hardAlpha"/>
            <feOffset dy="11"/>
            <feGaussianBlur stdDeviation="11"/>
            <feColorMatrix type="matrix" values="0 0 0 0 0.397708 0 0 0 0 0.47749 0 0 0 0 0.575 0 0 0 0.27 0"/>
            <feBlend mode="normal" in2="BackgroundImageFix" result="effect1_dropShadow_162_1843"/>
            <feBlend mode="normal" in="SourceGraphic" in2="effect1_dropShadow_162_1843" result="shape"/>
        </filter>
        <linearGradient id="paint0_linear_162_1843" x1="86.4809" y1="42.0352" x2="86.4432" y2="86.2029" gradientUnits="userSpaceOnUse">
            <stop stop-color="white"/>
            <stop offset="0.9964" stop-color="#ECF0F5"/>
        </linearGradient>
        <linearGradient id="paint1_linear_162_1843" x1="100.307" y1="39.3218" x2="118.835" y2="59.5855" gradientUnits="userSpaceOnUse">
            <stop stop-color="#BCCBE1"/>
            <stop offset="0.9942" stop-color="white" stop-opacity="0"/>
        </linearGradient>
        <linearGradient id="paint2_linear_162_1843" x1="48.6474" y1="31.4757" x2="77.8487" y2="42.903" gradientUnits="userSpaceOnUse">
            <stop stop-color="#E2E8F0"/>
            <stop offset="0.9942" stop-color="white" stop-opacity="0"/>
        </linearGradient>
    </defs>
</svg>
