<svg width="20" height="20" viewBox="0 0 20 20" fill="none" xmlns="http://www.w3.org/2000/svg">
<g filter="url(#filter0_b_124_349)">
<path fill-rule="evenodd" clip-rule="evenodd" d="M2 18H18V10H2V18ZM0 20H20V8H0V20ZM5 14H15V12H5V14ZM2 6H18V4H2V6ZM4 2H16V0H4V2Z" fill="url(#paint0_linear_124_349)" fill-opacity="0.9"/>
<path fill-rule="evenodd" clip-rule="evenodd" d="M2 18H18V10H2V18ZM0 20H20V8H0V20ZM5 14H15V12H5V14ZM2 6H18V4H2V6ZM4 2H16V0H4V2Z" fill="url(#paint1_radial_124_349)" fill-opacity="0.6" style="mix-blend-mode:soft-light"/>
</g>
<defs>
<filter id="filter0_b_124_349" x="-0.903634" y="-0.903634" width="21.8073" height="21.8073" filterUnits="userSpaceOnUse" color-interpolation-filters="sRGB">
<feFlood flood-opacity="0" result="BackgroundImageFix"/>
<feGaussianBlur in="BackgroundImageFix" stdDeviation="0.451817"/>
<feComposite in2="SourceAlpha" operator="in" result="effect1_backgroundBlur_124_349"/>
<feBlend mode="normal" in="SourceGraphic" in2="effect1_backgroundBlur_124_349" result="shape"/>
</filter>
<linearGradient id="paint0_linear_124_349" x1="9.11566" y1="-7.7423" x2="-5.96465" y2="10.3664" gradientUnits="userSpaceOnUse">
<stop stop-color="#9D9DF9"/>
<stop offset="1" stop-color="#1D45C2"/>
</linearGradient>
<radialGradient id="paint1_radial_124_349" cx="0" cy="0" r="1" gradientUnits="userSpaceOnUse" gradientTransform="translate(9.02541 2.85731) rotate(90) scale(10.0104 11.9028)">
<stop stop-color="white" stop-opacity="0.5"/>
<stop offset="1" stop-opacity="0.5"/>
</radialGradient>
</defs>
</svg>
