<svg width="60" height="60" viewBox="0 0 60 60" fill="none" xmlns="http://www.w3.org/2000/svg">
<path fill-rule="evenodd" clip-rule="evenodd" d="M50 47.5005C50 48.8805 48.88 50.0005 47.5 50.0005H12.5C11.12 50.0005 10 48.8805 10 47.5005V12.5005C10 11.1205 11.12 10.0005 12.5 10.0005H35V20.0005C35 22.7605 37.2375 25.0005 40 25.0005H50V47.5005ZM54.2675 19.268L40.7325 5.73299C40.2625 5.26299 39.6275 5.00049 38.965 5.00049H10C7.2375 5.00049 5 7.23799 5 10.0005V50.0005C5 52.7605 7.2375 55.0005 10 55.0005H50C52.7625 55.0005 55 52.7605 55 50.0005V21.0355C55 20.373 54.7375 19.738 54.2675 19.268Z" fill="#6576DB"/>
<path d="M29.4138 35.2538V50.6088H24.4297V35.2538C24.4297 34.1563 23.2809 33.5913 22.4859 34.3438L20.1633 36.6988C19.164 37.6463 17.5841 37.5913 16.6545 36.5763C15.7399 35.5838 15.7898 34.0388 16.7667 33.1063L23.8117 26.3788C25.7306 24.5463 28.7435 24.5388 30.6673 26.3663L37.7497 33.0863C38.7416 34.0238 38.774 35.5913 37.8394 36.5838L37.7846 36.6213C36.8476 37.6138 35.2477 37.6588 34.2584 36.7188L31.6741 34.3463C30.8792 33.5913 29.4138 34.1563 29.4138 35.2538Z" fill="#6576DB"/>
</svg>
