<svg width="20" height="20" viewBox="0 0 20 20" fill="none" xmlns="http://www.w3.org/2000/svg">
<path d="M8 12C8.32588 12.3326 8.71485 12.5968 9.14413 12.7772C9.57341 12.9576 10.0344 13.0505 10.5 13.0505C10.9656 13.0505 11.4266 12.9576 11.8559 12.7772C12.2852 12.5968 12.6741 12.3326 13 12L17 8.00001C17.663 7.33697 18.0355 6.43769 18.0355 5.50001C18.0355 4.56233 17.663 3.66305 17 3.00001C16.337 2.33697 15.4377 1.96448 14.5 1.96448C13.5623 1.96448 12.663 2.33697 12 3.00001L11.5 3.50001" stroke="currentColor" stroke-width="2" stroke-linecap="round" stroke-linejoin="round"/>
<path d="M12 7.99997C11.6741 7.66737 11.2852 7.40315 10.8559 7.22276C10.4266 7.04238 9.96565 6.94946 9.50001 6.94946C9.03437 6.94946 8.57342 7.04238 8.14414 7.22276C7.71486 7.40315 7.32589 7.66737 7.00001 7.99997L3.00001 12C2.33697 12.663 1.96448 13.5623 1.96448 14.5C1.96448 15.4377 2.33697 16.3369 3.00001 17C3.66305 17.663 4.56233 18.0355 5.50001 18.0355C6.43769 18.0355 7.33697 17.663 8.00001 17L8.50001 16.5" stroke="currentColor" stroke-width="2" stroke-linecap="round" stroke-linejoin="round"/>
</svg>
