<svg width="156" height="174" viewBox="0 0 156 174" fill="none" xmlns="http://www.w3.org/2000/svg">
<path d="M21.069 31.5062C22.6755 30.981 23.5544 29.2454 23.0323 27.6296C22.5102 26.0139 20.7847 25.1298 19.1782 25.6549C17.5718 26.1801 16.6928 27.9157 17.2149 29.5315C17.7371 31.1472 19.4626 32.0313 21.069 31.5062Z" fill="#EAEEF9"/>
<path d="M26.8574 21.1489C27.9498 20.7918 28.5475 19.6116 28.1924 18.5128C27.8374 17.4141 26.664 16.8129 25.5717 17.17C24.4793 17.5272 23.8816 18.7073 24.2366 19.8061C24.5917 20.9048 25.765 21.506 26.8574 21.1489Z" fill="#EAEEF9"/>
<path d="M128.012 32.0282C129.908 30.286 130.04 27.3283 128.308 25.4219C126.576 23.5154 123.635 23.3823 121.74 25.1245C119.845 26.8666 119.712 29.8244 121.444 31.7308C123.176 33.6372 126.117 33.7704 128.012 32.0282Z" fill="#EAEEF9"/>
<path d="M142.862 23.5026C143.66 22.769 143.716 21.5237 142.987 20.721C142.257 19.9183 141.019 19.8622 140.221 20.5958C139.423 21.3293 139.367 22.5747 140.097 23.3774C140.826 24.1801 142.064 24.2361 142.862 23.5026Z" fill="#EAEEF9"/>
<path d="M26.4435 132.81C27.2415 132.076 27.2973 130.831 26.568 130.028C25.8387 129.226 24.6005 129.169 23.8024 129.903C23.0044 130.637 22.9486 131.882 23.6779 132.685C24.4072 133.487 25.6454 133.543 26.4435 132.81Z" fill="#EAEEF9"/>
<path d="M75.8042 139.316C109.385 139.316 136.608 111.935 136.608 78.158C136.608 44.3814 109.385 17 75.8042 17C42.223 17 15 44.3814 15 78.158C15 111.935 42.223 139.316 75.8042 139.316Z" fill="#EAEEF9"/>
<g filter="url(#filter0_d_72_1024)">
<path d="M37.4793 70.0858L29.527 36.1228C28.9153 33.5387 30.5058 31.0776 32.9526 30.4623L85.4376 17.9108L115.167 38.2147L133.763 112.909C134.375 115.493 132.784 117.954 130.337 118.569L57.9105 135.797C55.3413 136.412 52.8945 134.812 52.2828 132.351L36.8676 67.5017" fill="url(#paint0_linear_72_1024)"/>
</g>
<g filter="url(#filter1_d_72_1024)">
<path d="M99.9415 137.778C98.9588 140.168 96.2398 141.312 93.8636 140.335L25.0672 112.049C22.691 111.072 21.5629 108.347 22.5456 105.957L60.1672 14.4533C61.1498 12.0633 63.8689 10.9194 66.2451 11.8964L116.145 32.4127L128.395 66.321L111.815 107.934L99.9415 137.778Z" fill="url(#paint1_linear_72_1024)"/>
</g>
<path d="M96.253 110.716L54.9525 93.7352C54.2736 93.456 53.9418 92.6544 54.2226 91.9715C54.5033 91.2887 55.3031 90.9522 55.982 91.2314L97.2824 108.212C97.9613 108.491 98.2931 109.293 98.0124 109.976C97.6185 110.612 96.9319 110.995 96.253 110.716Z" fill="#D6DCE8"/>
<path d="M49.8608 91.6418L42.619 88.6644C41.9401 88.3852 41.6083 87.5836 41.8891 86.9007C42.1698 86.2179 42.9696 85.8814 43.6485 86.1605L50.8902 89.138C51.5691 89.4171 51.9009 90.2188 51.6202 90.9016C51.3394 91.5845 50.5397 91.9209 49.8608 91.6418Z" fill="#D6DCE8"/>
<path d="M100.772 99.4022L82.3285 91.819C81.6496 91.5399 81.3178 90.7382 81.5986 90.0554C81.8793 89.3725 82.679 89.0361 83.358 89.3152L101.802 96.8984C102.481 97.1775 102.812 97.9792 102.532 98.662C102.091 99.4122 101.451 99.6813 100.772 99.4022Z" fill="#D6DCE8"/>
<path d="M74.5209 88.609L47.5907 77.5367C46.9118 77.2576 46.58 76.4559 46.8608 75.773C47.1415 75.0902 47.9412 74.7537 48.6202 75.0329L75.5503 86.1052C76.2292 86.3843 76.561 87.186 76.2803 87.8688C75.9527 88.6655 75.1998 88.8881 74.5209 88.609Z" fill="#D6DCE8"/>
<path d="M105.698 88.3884L98.569 85.4575C97.8901 85.1783 97.5583 84.3767 97.839 83.6938C98.1198 83.0109 98.9195 82.6745 99.5984 82.9536L106.727 85.8845C107.406 86.1637 107.738 86.9653 107.457 87.6482C107.176 88.3311 106.376 88.6675 105.698 88.3884Z" fill="#D6DCE8"/>
<path d="M91.8929 82.7127L52.516 66.5229C51.8371 66.2438 51.5053 65.4421 51.7861 64.7592C52.0668 64.0764 52.8665 63.7399 53.5455 64.0191L92.9223 80.2088C93.6012 80.488 93.933 81.2896 93.6523 81.9725C93.3715 82.6554 92.5718 82.9918 91.8929 82.7127Z" fill="#D6DCE8"/>
<path d="M59.9692 110.167L57.4799 109.144C56.801 108.864 56.4692 108.063 56.7499 107.38C57.0307 106.697 57.8304 106.361 58.5093 106.64L60.9987 107.663C61.6776 107.942 62.0094 108.744 61.7286 109.427C61.3347 110.063 60.535 110.4 59.9692 110.167Z" fill="#D6DCE8"/>
<path d="M52.954 107.283L38.2443 101.235C37.5654 100.956 37.2336 100.154 37.5143 99.4713C37.7951 98.7884 38.5948 98.452 39.2737 98.7311L53.8703 104.732C54.5492 105.012 54.881 105.813 54.6003 106.496C54.4327 107.226 53.6329 107.562 52.954 107.283Z" fill="#D6DCE8"/>
<path d="M110.622 77.3744L85.2763 66.9534C84.5973 66.6743 84.2656 65.8726 84.5463 65.1898C84.8271 64.5069 85.6268 64.1705 86.3057 64.4496L111.652 74.8706C112.331 75.1498 112.662 75.9514 112.382 76.6343C112.101 77.3171 111.301 77.6536 110.622 77.3744Z" fill="#D6DCE8"/>
<path d="M77.1297 63.604L57.4413 55.5091C56.7624 55.23 56.4306 54.4283 56.7113 53.7454C56.9921 53.0626 57.7918 52.7261 58.4707 53.0053L78.046 61.0536C78.7249 61.3328 79.0567 62.1344 78.776 62.8173C78.4952 63.5002 77.8086 63.8831 77.1297 63.604Z" fill="#D6DCE8"/>
<path d="M101.322 44.0138L68.2817 30.4293C67.3765 30.0571 66.9784 29.0951 67.3527 28.1847C67.7271 27.2742 68.6867 26.8704 69.5919 27.2426L102.632 40.8271C103.538 41.1993 103.936 42.1613 103.561 43.0718C103.234 43.8685 102.114 44.3395 101.322 44.0138Z" fill="#D6DCE8"/>
<path d="M77.5662 43.56L65.0063 38.396C64.1011 38.0238 63.703 37.0618 64.0773 36.1513C64.4517 35.2408 65.4113 34.8371 66.3165 35.2093L78.9896 40.4198C79.8948 40.792 80.2929 41.754 79.9186 42.6645C79.4779 43.4146 78.4714 43.9321 77.5662 43.56Z" fill="#D6DCE8"/>
<path d="M116.145 32.4126L108.097 51.988C106.974 54.7194 108.414 57.9726 111.13 59.0891L128.442 66.207" fill="#D5DDEA"/>
<g filter="url(#filter2_d_72_1024)">
<path d="M121.895 125.583C121.895 128.168 119.816 130.26 117.246 130.26H42.8621C40.293 130.26 38.2131 128.168 38.2131 125.583V26.6477C38.2131 24.0636 40.293 21.9717 42.8621 21.9717H96.8152L121.039 48.6745L121.528 93.4663L121.895 125.583Z" fill="url(#paint2_linear_72_1024)"/>
</g>
<path d="M108.193 101.957H63.5382C62.8041 101.957 62.1924 101.342 62.1924 100.603C62.1924 99.8649 62.8041 99.2496 63.5382 99.2496H108.193C108.927 99.2496 109.539 99.8649 109.539 100.603C109.417 101.342 108.927 101.957 108.193 101.957Z" fill="#D6DCE8"/>
<path d="M58.0329 101.957H50.2029C49.4689 101.957 48.8572 101.342 48.8572 100.603C48.8572 99.8649 49.4689 99.2496 50.2029 99.2496H58.0329C58.7669 99.2496 59.3786 99.8649 59.3786 100.603C59.3786 101.342 58.7669 101.957 58.0329 101.957Z" fill="#D6DCE8"/>
<path d="M108.071 89.7745H88.129C87.3949 89.7745 86.7832 89.1592 86.7832 88.4209C86.7832 87.6825 87.3949 87.0673 88.129 87.0673H108.071C108.805 87.0673 109.417 87.6825 109.417 88.4209C109.294 89.2822 108.805 89.7745 108.071 89.7745Z" fill="#D6DCE8"/>
<path d="M79.6874 89.7745H50.5699C49.8358 89.7745 49.2241 89.1592 49.2241 88.4209C49.2241 87.6825 49.8358 87.0673 50.5699 87.0673H79.6874C80.4214 87.0673 81.0332 87.6825 81.0332 88.4209C81.0332 89.2822 80.4214 89.7745 79.6874 89.7745Z" fill="#D6DCE8"/>
<path d="M108.438 77.7151H100.731C99.9965 77.7151 99.3848 77.0999 99.3848 76.3615C99.3848 75.6232 99.9965 75.0079 100.731 75.0079H108.438C109.172 75.0079 109.784 75.6232 109.784 76.3615C109.784 77.0999 109.172 77.7151 108.438 77.7151Z" fill="#D6DCE8"/>
<path d="M93.5123 77.7151H50.9371C50.203 77.7151 49.5913 77.0999 49.5913 76.3615C49.5913 75.6232 50.203 75.0079 50.9371 75.0079H93.5123C94.2463 75.0079 94.858 75.6232 94.858 76.3615C94.858 77.0999 94.2463 77.7151 93.5123 77.7151Z" fill="#D6DCE8"/>
<path d="M74.4265 115.247H71.7349C71.0009 115.247 70.3892 114.631 70.3892 113.893C70.3892 113.155 71.0009 112.539 71.7349 112.539H74.4265C75.1605 112.539 75.7722 113.155 75.7722 113.893C75.6499 114.631 75.0382 115.247 74.4265 115.247Z" fill="#D6DCE8"/>
<path d="M66.8416 115.247H50.9371C50.203 115.247 49.5913 114.631 49.5913 113.893C49.5913 113.155 50.203 112.539 50.9371 112.539H66.7193C67.4533 112.539 68.065 113.155 68.065 113.893C68.1874 114.631 67.5757 115.247 66.8416 115.247Z" fill="#D6DCE8"/>
<path d="M108.805 65.6558H81.4C80.6659 65.6558 80.0542 65.0405 80.0542 64.3022C80.0542 63.5639 80.6659 62.9486 81.4 62.9486H108.805C109.539 62.9486 110.15 63.5639 110.15 64.3022C110.15 65.0405 109.539 65.6558 108.805 65.6558Z" fill="#D6DCE8"/>
<path d="M72.5919 65.6558H51.3043C50.5702 65.6558 49.9585 65.0405 49.9585 64.3022C49.9585 63.5639 50.5702 62.9486 51.3043 62.9486H72.4695C73.2036 62.9486 73.8153 63.5639 73.8153 64.3022C73.8153 65.0405 73.3259 65.6558 72.5919 65.6558Z" fill="#D6DCE8"/>
<path d="M87.5174 38.3379H51.7934C50.8146 38.3379 50.0806 37.5995 50.0806 36.6151C50.0806 35.6307 50.8146 34.8923 51.7934 34.8923H87.5174C88.4961 34.8923 89.2302 35.6307 89.2302 36.6151C89.2302 37.4765 88.3738 38.3379 87.5174 38.3379Z" fill="#D6DCE8"/>
<path d="M65.3734 46.9516H51.7934C50.8146 46.9516 50.0806 46.2133 50.0806 45.2289C50.0806 44.2444 50.8146 43.5061 51.7934 43.5061H65.4957C66.4745 43.5061 67.2085 44.2444 67.2085 45.2289C67.0862 46.0902 66.3521 46.9516 65.3734 46.9516Z" fill="#D6DCE8"/>
<path d="M96.8149 21.9716V43.1369C96.8149 46.0902 99.3841 48.5513 102.32 48.5513H121.039" fill="#D5DDEA"/>
<g filter="url(#filter3_b_72_1024)">
<path d="M102.878 77.939C102.878 81.415 102.299 84.6013 100.995 87.6428C98.0985 95.1742 91.8707 100.968 84.1945 103.575C81.5875 104.444 78.8357 104.878 75.939 104.878C61.0212 104.878 49 92.8568 49 77.939C49 63.0212 61.0212 51 75.939 51C90.8568 51 102.878 63.166 102.878 77.939Z" fill="url(#paint3_linear_72_1024)" fill-opacity="0.9"/>
<path d="M102.878 77.939C102.878 81.415 102.299 84.6013 100.995 87.6428C98.0985 95.1742 91.8707 100.968 84.1945 103.575C81.5875 104.444 78.8357 104.878 75.939 104.878C61.0212 104.878 49 92.8568 49 77.939C49 63.0212 61.0212 51 75.939 51C90.8568 51 102.878 63.166 102.878 77.939Z" fill="url(#paint4_radial_72_1024)" fill-opacity="0.6" style="mix-blend-mode:soft-light"/>
</g>
<path id="demo" d="M93.7318 76.066C93.7318 74.3287 92.2693 74.3287 90.8068 74.1839C89.4905 74.0391 89.3442 72.8809 88.7592 71.7227C87.7355 69.551 91.6842 68.5376 89.6367 66.5107C87.5892 64.4838 86.5655 62.8912 84.9567 64.0494C83.933 64.7733 83.2017 65.642 82.0317 65.0629C80.8617 64.4838 79.6917 64.339 79.5455 63.036C79.1067 59.7061 78.8142 60.1404 74.2804 60.1404C71.5017 60.1404 73.4029 63.6151 71.2092 64.4838C69.8929 64.9181 69.0154 65.642 67.9917 64.9181C65.2129 62.8912 65.5054 63.3255 62.1417 66.5107C60.9716 67.6689 61.8491 68.6823 62.8729 69.9853C63.6042 70.9988 62.8729 71.8675 62.4341 73.1705C61.7029 75.3421 58.0466 73.46 58.0466 76.2108C58.0466 77.5138 58.0466 78.8168 58.1929 80.1198C58.7779 81.7124 60.0941 80.9885 61.4104 81.5676H61.5566C61.5566 81.5676 61.5566 81.5676 61.7029 81.5676C61.9954 81.7124 62.2879 82.1467 62.4341 82.4363C62.4341 82.5811 62.5804 83.0154 62.7266 83.1602C63.1654 84.1736 63.6042 84.7527 62.8729 85.6214C60.9716 88.2274 61.2641 88.0826 64.4817 91.4125C66.3829 93.4394 67.6992 89.5304 69.7467 90.5439C70.6242 90.9782 71.7942 91.2678 72.0867 92.1364C72.3792 92.7155 72.2329 93.729 72.6717 94.4529C73.2567 95.7559 75.3042 95.3216 77.498 95.3216C80.2767 95.3216 78.3755 91.8469 80.5692 90.9782C83.2017 90.1095 82.6167 89.82 84.8105 91.4125C86.4192 92.5708 87.7355 90.6887 89.4905 88.9513C91.538 86.9244 87.5892 85.7662 88.613 83.7393C88.7592 83.305 89.0517 82.8706 89.198 82.4363C89.6368 81.2781 90.6605 81.2781 91.9767 81.1333C94.1705 80.8437 93.7318 78.8168 93.7318 76.066ZM75.8892 83.8841C72.5254 83.8841 69.7467 81.1333 69.7467 77.8034C69.7467 74.4735 72.5254 71.7227 75.8892 71.7227C79.253 71.7227 82.0317 74.4735 82.0317 77.8034C82.178 81.1333 79.3992 83.8841 75.8892 83.8841Z" fill="white">
    <animateTransform
            attributeName="transform"
            attributeType="XML"
            type="rotate"
            from="0 76 78"
            to="360 76 78"
            dur="2s"
            repeatCount="indefinite"/>
</path>
<defs>
<filter id="filter0_d_72_1024" x="7.39575" y="6.91077" width="148.498" height="162.018" filterUnits="userSpaceOnUse" color-interpolation-filters="sRGB">
<feFlood flood-opacity="0" result="BackgroundImageFix"/>
<feColorMatrix in="SourceAlpha" type="matrix" values="0 0 0 0 0 0 0 0 0 0 0 0 0 0 0 0 0 0 127 0" result="hardAlpha"/>
<feOffset dy="11"/>
<feGaussianBlur stdDeviation="11"/>
<feColorMatrix type="matrix" values="0 0 0 0 0.397708 0 0 0 0 0.47749 0 0 0 0 0.575 0 0 0 0.27 0"/>
<feBlend mode="normal" in2="BackgroundImageFix" result="effect1_dropShadow_72_1024"/>
<feBlend mode="normal" in="SourceGraphic" in2="effect1_dropShadow_72_1024" result="shape"/>
</filter>
<filter id="filter1_d_72_1024" x="0.190674" y="0.547363" width="150.204" height="173.137" filterUnits="userSpaceOnUse" color-interpolation-filters="sRGB">
<feFlood flood-opacity="0" result="BackgroundImageFix"/>
<feColorMatrix in="SourceAlpha" type="matrix" values="0 0 0 0 0 0 0 0 0 0 0 0 0 0 0 0 0 0 127 0" result="hardAlpha"/>
<feOffset dy="11"/>
<feGaussianBlur stdDeviation="11"/>
<feColorMatrix type="matrix" values="0 0 0 0 0.397708 0 0 0 0 0.47749 0 0 0 0 0.575 0 0 0 0.27 0"/>
<feBlend mode="normal" in2="BackgroundImageFix" result="effect1_dropShadow_72_1024"/>
<feBlend mode="normal" in="SourceGraphic" in2="effect1_dropShadow_72_1024" result="shape"/>
</filter>
<filter id="filter2_d_72_1024" x="16.2131" y="10.9717" width="127.682" height="152.288" filterUnits="userSpaceOnUse" color-interpolation-filters="sRGB">
<feFlood flood-opacity="0" result="BackgroundImageFix"/>
<feColorMatrix in="SourceAlpha" type="matrix" values="0 0 0 0 0 0 0 0 0 0 0 0 0 0 0 0 0 0 127 0" result="hardAlpha"/>
<feOffset dy="11"/>
<feGaussianBlur stdDeviation="11"/>
<feColorMatrix type="matrix" values="0 0 0 0 0.397708 0 0 0 0 0.47749 0 0 0 0 0.575 0 0 0 0.27 0"/>
<feBlend mode="normal" in2="BackgroundImageFix" result="effect1_dropShadow_72_1024"/>
<feBlend mode="normal" in="SourceGraphic" in2="effect1_dropShadow_72_1024" result="shape"/>
</filter>
<filter id="filter3_b_72_1024" x="48.0964" y="50.0964" width="55.6852" height="55.6853" filterUnits="userSpaceOnUse" color-interpolation-filters="sRGB">
<feFlood flood-opacity="0" result="BackgroundImageFix"/>
<feGaussianBlur in="BackgroundImageFix" stdDeviation="0.451817"/>
<feComposite in2="SourceAlpha" operator="in" result="effect1_backgroundBlur_72_1024"/>
<feBlend mode="normal" in="SourceGraphic" in2="effect1_backgroundBlur_72_1024" result="shape"/>
</filter>
<linearGradient id="paint0_linear_72_1024" x1="81.6109" y1="15.1809" x2="81.6109" y2="137.201" gradientUnits="userSpaceOnUse">
<stop stop-color="#FDFEFF"/>
<stop offset="0.9964" stop-color="#ECF0F5"/>
</linearGradient>
<linearGradient id="paint1_linear_72_1024" x1="101.571" y1="23.7122" x2="58.9962" y2="127.262" gradientUnits="userSpaceOnUse">
<stop stop-color="#FDFEFF"/>
<stop offset="0.9964" stop-color="#ECF0F5"/>
</linearGradient>
<linearGradient id="paint2_linear_72_1024" x1="80.027" y1="19.4669" x2="80.027" y2="131.427" gradientUnits="userSpaceOnUse">
<stop stop-color="#FDFEFF"/>
<stop offset="0.9964" stop-color="#ECF0F5"/>
</linearGradient>
<linearGradient id="paint3_linear_72_1024" x1="73.5567" y1="30.143" x2="32.9318" y2="78.9261" gradientUnits="userSpaceOnUse">
<stop stop-color="#9D9DF9"/>
<stop offset="1" stop-color="#1D45C2"/>
</linearGradient>
<radialGradient id="paint4_radial_72_1024" cx="0" cy="0" r="1" gradientUnits="userSpaceOnUse" gradientTransform="translate(73.3136 58.6973) rotate(90) scale(26.9669 32.0649)">
<stop stop-color="white" stop-opacity="0.5"/>
<stop offset="1" stop-opacity="0.5"/>
</radialGradient>
</defs>
</svg>
